<?xml version="1.0" standalone="no"?>
<!DOCTYPE svg PUBLIC "-//W3C//DTD SVG 20010904//EN"
 "http://www.w3.org/TR/2001/REC-SVG-20010904/DTD/svg10.dtd">
<svg version="1.0" xmlns="http://www.w3.org/2000/svg"
 width="700.000000pt" height="700.000000pt" viewBox="0 0 700.000000 700.000000"
 preserveAspectRatio="xMidYMid meet">
<metadata>
Created by potrace 1.14, written by Peter Selinger 2001-2017
</metadata>
<g transform="translate(0.000000,700.000000) scale(0.100000,-0.100000)"
fill="#000000" stroke="none">
<path d="M1280 6993 c-239 -24 -469 -105 -665 -234 -101 -67 -304 -269 -370
-369 -108 -163 -183 -346 -222 -545 -17 -85 -18 -224 -18 -2340 0 -2158 1
-2254 19 -2350 56 -298 180 -533 395 -745 64 -64 152 -139 196 -168 161 -107
348 -182 540 -218 96 -18 192 -19 2345 -19 2153 0 2249 1 2345 19 298 56 533
180 745 395 168 169 273 339 338 548 72 228 67 25 67 2533 0 2508 5 2305 -67
2533 -66 212 -171 381 -343 552 -208 209 -417 322 -715 388 -95 21 -96 21
-2325 23 -1227 0 -2246 -1 -2265 -3z m2318 -1937 c15 -8 34 -22 43 -32 22 -25
757 -1297 782 -1353 15 -34 18 -58 14 -103 -5 -55 -30 -101 -445 -821 -470
-815 -468 -811 -560 -837 -20 -5 -106 -10 -191 -10 -128 0 -152 2 -148 14 3 8
140 247 305 533 165 285 307 532 316 550 18 35 21 98 7 135 -14 36 -60 77
-102 90 -47 13 -105 -1 -144 -35 -13 -12 -187 -303 -385 -647 -198 -343 -364
-628 -368 -632 -5 -5 -81 -7 -170 -6 l-162 3 410 709 c377 652 410 714 410
756 0 129 -143 204 -243 127 -25 -19 -151 -228 -487 -811 l-453 -786 -208 0
-208 0 140 243 c1275 2214 1666 2883 1698 2904 39 27 107 31 149 9z m1094
-1853 c9 -10 169 -284 357 -609 248 -430 341 -599 341 -621 0 -22 -8 -38 -26
-52 -26 -21 -34 -21 -726 -21 l-699 0 -24 25 c-14 13 -25 35 -25 48 0 12 46
104 103 203 465 808 582 1011 595 1027 9 10 29 17 52 17 23 0 43 -7 52 -17z"/>
</g>
</svg>
